<svg xmlns="http://www.w3.org/2000/svg" viewBox="0 0 100 100">
  <!-- Rounded square background -->
  <rect width="100" height="100" rx="22" fill="#2563eb"/>
  <!-- Shield shape -->
  <path d="M50 16 L73 27 L73 52 C73 66 62 75 50 83 C38 75 27 66 27 52 L27 27 Z" fill="white"/>
  <!-- Heart inside shield -->
  <path d="M41 44 C39 40 33 40 33 47 C33 54 41 60 50 67 C59 60 67 54 67 47 C67 40 61 40 59 44 C57 40 54 38 50 43 C46 38 43 40 41 44 Z" fill="#2563eb" transform="scale(0.78) translate(11 11)"/>
</svg>
